<?xml version="1.0" encoding="utf-8"?>
<!-- Generator: Adobe Illustrator 19.2.1, SVG Export Plug-In . SVG Version: 6.00 Build 0)  -->
<svg version="1.1" id="Layer_1" xmlns="http://www.w3.org/2000/svg" xmlns:xlink="http://www.w3.org/1999/xlink" x="0px" y="0px"
	 viewBox="0 0 2342.6 400" style="enable-background:new 0 0 2342.6 400;" xml:space="preserve">
<style type="text/css">
	.st0{fill:#FFCB00;}
	.st1{fill:#009DE2;}
	.st2{fill:#93C01F;}
	.st3{fill:#EC6EA5;}
	.st4{fill:#E42D20;}
	.st5{fill:#F29100;}
	path{mix-blend-mode: multiply;}
</style>
<path class="st0" d="M1986.2,345.1c-12.4,0-22.4-10-22.4-22.4V128.2c0-12.4,10-22.4,22.4-22.4c12.3,0,22.4,10,22.4,22.4v194.5
	C2008.5,335.1,1998.5,345.1,1986.2,345.1"/>
<g>
	<path class="st1" d="M2083.2,150.6h-97c-12.3,0-22.4-10-22.4-22.4c0-12.4,10-22.4,22.4-22.4h97c12.3,0,22.4,10,22.4,22.4
		C2105.6,140.6,2095.5,150.6,2083.2,150.6"/>
</g>
<g>
	<path class="st0" d="M2094.3,345.1h-108.1c-12.4,0-22.4-10-22.4-22.4c0-12.3,10-22.4,22.4-22.4h108.1c12.4,0,22.4,10,22.4,22.4
		C2116.7,335.1,2106.7,345.1,2094.3,345.1"/>
</g>
<g>
	<path class="st2" d="M2083.2,242.4c-12.3,0-22.4-10-22.4-22.4c0-12.3,10-22.4,22.4-22.4c13.1,0,23.7-10.6,23.7-23.7
		c0-13.1-10.6-23.7-23.7-23.7c-12.3,0-22.4-10-22.4-22.4c0-12.3,10-22.4,22.4-22.4c37.7,0,68.4,30.7,68.4,68.4
		C2151.6,211.7,2120.9,242.4,2083.2,242.4"/>
</g>
<g>
	<path class="st3" d="M2094.3,345.1c-12.3,0-22.4-10-22.4-22.4c0-12.3,10-22.4,22.4-22.4c16,0,29-13,29-29c0-16-13-29-29-29h-11.1h0
		c-12.3,0-22.3-10-22.4-22.3c0-12.3,10-22.4,22.3-22.4h11.1c40.6,0,73.7,33.1,73.7,73.7C2168,312,2135,345.1,2094.3,345.1"/>
</g>
<g>
	<path class="st4" d="M2083.2,242.4h-97c-12.3,0-22.4-10-22.4-22.4c0-12.3,10-22.4,22.4-22.4h97c12.3,0,22.4,10,22.4,22.4
		C2105.6,232.4,2095.6,242.4,2083.2,242.4"/>
</g>
<g>
	<path class="st4" d="M1219.5,345.1c-3.4,0-6.9-0.8-10.1-2.4c-11-5.6-15.4-19.1-9.8-30.1l98.8-194.5c5.6-11,19.1-15.4,30.1-9.8
		c11,5.6,15.4,19.1,9.8,30.1l-98.8,194.5C1235.5,340.6,1227.6,345.1,1219.5,345.1"/>
</g>
<g>
	<path class="st0" d="M1417.1,345.1c-8.1,0-16-4.5-20-12.2l-98.8-194.5c-5.6-11-1.2-24.5,9.8-30.1c11-5.6,24.5-1.2,30.1,9.8
		l98.8,194.5c5.6,11,1.2,24.5-9.8,30.1C1424,344.3,1420.5,345.1,1417.1,345.1"/>
</g>
<g>
	<path class="st1" d="M1395.2,302h-153.8c-12.3,0-22.4-10-22.4-22.4c0-12.3,10-22.4,22.4-22.4h153.8c12.3,0,22.4,10,22.4,22.4
		C1417.5,292,1407.5,302,1395.2,302"/>
</g>
<g>
	<path class="st2" d="M295.2,278.7c-6.9,0-13.6-3.2-18-9.1l-94.2-128.1c-7.3-9.9-5.2-23.9,4.8-31.3c9.9-7.3,23.9-5.2,31.3,4.8
		l94.2,128.1c7.3,9.9,5.2,23.9-4.8,31.3C304.4,277.3,299.8,278.7,295.2,278.7"/>
</g>
<g>
	<path class="st4" d="M295.1,278.7c-4.7,0-9.5-1.5-13.5-4.6c-9.8-7.5-11.7-21.5-4.2-31.3l97.6-128.1c7.5-9.8,21.5-11.7,31.3-4.2
		c9.8,7.5,11.7,21.5,4.2,31.3l-97.6,128.1C308.5,275.6,301.9,278.7,295.1,278.7"/>
</g>
<g>
	<path class="st0" d="M392.7,345.1c-12.3,0-22.4-10-22.4-22.4V128.2c0-12.4,10-22.4,22.4-22.4c12.3,0,22.4,10,22.4,22.4v194.5
		C415.1,335.1,405.1,345.1,392.7,345.1"/>
</g>
<g>
	<path class="st1" d="M200.9,345.1c-12.3,0-22.4-10-22.4-22.4V128.2c0-12.4,10-22.4,22.4-22.4c12.3,0,22.4,10,22.4,22.4v194.5
		C223.3,335.1,213.3,345.1,200.9,345.1"/>
</g>
<g>
	<path class="st0" d="M1509.8,345.1c-12.3,0-22.4-10-22.4-22.4V128.2c0-12.3,10-22.4,22.4-22.4c12.4,0,22.4,10,22.4,22.4v194.5
		C1532.1,335.1,1522.1,345.1,1509.8,345.1"/>
</g>
<g>
	<path class="st1" d="M1624.9,345.1h-115.1c-12.3,0-22.4-10-22.4-22.4c0-12.4,10-22.4,22.4-22.4h115.1c12.3,0,22.4,10,22.4,22.4
		C1647.3,335.1,1637.3,345.1,1624.9,345.1"/>
</g>
<g>
	<path class="st0" d="M815.9,345.1c-12.3,0-22.4-10-22.4-22.4V128.2c0-12.4,10-22.4,22.4-22.4c12.3,0,22.4,10,22.4,22.4v194.5
		C838.3,335.1,828.3,345.1,815.9,345.1"/>
</g>
<g>
	<path class="st2" d="M897.5,150.6H734.3c-12.3,0-22.4-10-22.4-22.4c0-12.4,10-22.4,22.4-22.4h163.2c12.3,0,22.4,10,22.4,22.4
		C919.9,140.6,909.9,150.6,897.5,150.6"/>
</g>
<g>
	<path class="st1" d="M489.9,272.4c-12.3,0-22.4-10-22.4-22.4V124.5c0-12.3,10-22.4,22.4-22.4c12.3,0,22.4,10,22.4,22.4v125.6
		C512.3,262.4,502.3,272.4,489.9,272.4"/>
</g>
<g>
	<path class="st4" d="M653.1,272.4c-12.3,0-22.4-10-22.4-22.4V124.5c0-12.3,10-22.4,22.4-22.4c12.3,0,22.4,10,22.4,22.4v125.6
		C675.5,262.4,665.5,272.4,653.1,272.4"/>
</g>
<g>
	<path class="st5" d="M571.4,345.1c-56.3,0-103.8-43.5-103.8-95c0-12.3,10-22.4,22.4-22.4c12.3,0,22.4,10,22.4,22.4
		c0,26.8,27.6,50.3,59.1,50.3c15.2,0,30.6-5.8,42.1-15.8c11.1-9.7,17.2-21.9,17.2-34.5c0-12.3,10-22.4,22.4-22.4
		c12.3,0,22.4,10,22.4,22.4C675.5,301.6,627.8,345.1,571.4,345.1"/>
</g>
<g>
	<path class="st1" d="M974.6,272.4c-12.4,0-22.4-10-22.4-22.4V124.5c0-12.3,10-22.4,22.4-22.4c12.3,0,22.4,10,22.4,22.4v125.6
		C996.9,262.4,986.9,272.4,974.6,272.4"/>
</g>
<g>
	<path class="st4" d="M1137.8,272.4c-12.4,0-22.4-10-22.4-22.4V124.5c0-12.3,10-22.4,22.4-22.4c12.3,0,22.4,10,22.4,22.4v125.6
		C1160.1,262.4,1150.1,272.4,1137.8,272.4"/>
</g>
<g>
	<path class="st5" d="M1056,345.1c-56.3,0-103.8-43.5-103.8-95c0-12.3,10-22.4,22.4-22.4c12.3,0,22.4,10,22.4,22.4
		c0,26.8,27.6,50.3,59.1,50.3c15.2,0,30.6-5.8,42.1-15.8c11.1-9.7,17.2-21.9,17.2-34.5c0-12.3,10-22.4,22.4-22.4
		c12.3,0,22.4,10,22.4,22.4C1160.1,301.6,1112.4,345.1,1056,345.1"/>
</g>
<g>
	<path class="st4" d="M1708.8,345c-3.4,0-6.9-0.8-10.1-2.4c-11-5.6-15.4-19-9.8-30l98.7-194.4c5.6-11,19-15.4,30-9.8
		c11,5.6,15.4,19,9.8,30l-98.7,194.4C1724.8,340.6,1716.9,345,1708.8,345"/>
</g>
<g>
	<path class="st0" d="M1906.3,345c-8.2,0-16-4.5-19.9-12.2l-98.7-194.4c-5.6-11-1.2-24.4,9.8-30c11-5.6,24.5-1.2,30,9.8l98.7,194.4
		c5.6,11,1.2,24.5-9.8,30C1913.1,344.3,1909.7,345,1906.3,345"/>
</g>
<g>
	<path class="st1" d="M1884.4,302h-153.7c-12.3,0-22.3-10-22.3-22.3c0-12.3,10-22.3,22.3-22.3h153.7c12.3,0,22.3,10,22.3,22.3
		C1906.7,292,1896.7,302,1884.4,302"/>
</g>
<path class="st3" d="M1841.8,79.3h-68.5c-8,0-14.5-6.5-14.5-14.5s6.5-14.5,14.5-14.5h68.5c8,0,14.5,6.5,14.5,14.5
	S1849.8,79.3,1841.8,79.3"/>
</svg>
