<svg xmlns="http://www.w3.org/2000/svg" xmlns:xlink="http://www.w3.org/1999/xlink" width="200" height="92" viewBox="0 0 200 92">
  <defs>
    <polygon id="zapier-logo-a" points=".024 .134 110.58 .134 110.58 58.776 .024 58.776"/>
  </defs>
  <g fill="none" fill-rule="evenodd">
    <g transform="translate(0 32.8)">
      <mask id="zapier-logo-b" fill="#fff">
        <use xlink:href="#zapier-logo-a"/>
      </mask>
      <path fill="#FF4A00" d="M0 39.3224L20.7056 7.1128 2.454 7.1128C2.3008 6.1928 2.2244 5.1712 2.2244 4.046 2.2244 2.9728 2.3008 1.9748 2.454 1.0544L31.9784 1.0544 32.3616 2.0528 11.5032 34.3376 31.058 34.3376C31.2112 35.3604 31.2884 36.4076 31.2884 37.4808 31.2884 38.5048 31.2112 39.4756 31.058 40.3956L.3836 40.3956 0 39.3224M59.7384 21.9132C58.9716 21.812 58 21.7108 56.8244 21.6072 55.648 21.506 54.6504 21.454 53.8336 21.454 50.6632 21.454 48.2476 22.042 46.5872 23.2176 44.9248 24.3948 44.0948 26.1832 44.0948 28.5856 44.0948 30.1196 44.3752 31.3212 44.9384 32.1896 45.5 33.0604 46.2036 33.7236 47.0472 34.184 47.8908 34.644 48.8228 34.9256 49.846 35.028 50.868 35.13 51.84 35.1808 52.76 35.1808 53.9352 35.1808 55.1496 35.1172 56.4024 34.9888 57.6548 34.862 58.7668 34.6696 59.7384 34.414L59.7384 21.9132zM59.7384 14.4756C59.7384 11.4592 58.9716 9.3632 57.438 8.1872 55.904 7.0116 53.6804 6.4236 50.766 6.4236 48.9756 6.4236 47.3024 6.5648 45.7436 6.8456 44.1832 7.1272 42.6624 7.4968 41.1804 7.9564 40.2084 6.2692 39.7236 4.2512 39.7236 1.898 41.4608 1.3364 43.3776.9016 45.4748.5952 47.5704.288 49.5896.1344 51.5332.1344 56.6448.1344 60.5304 1.2984 63.1896 3.6244 65.8468 5.9512 67.1768 9.6704 67.1768 14.782L67.1768 39.3988C65.3868 39.8076 63.2148 40.2292 60.6588 40.664 58.1016 41.0976 55.494 41.3156 52.8368 41.3156 50.3316 41.3156 48.0692 41.086 46.05 40.6256 44.03 40.1644 42.3172 39.4248 40.9116 38.4008 39.5052 37.3792 38.42 36.0752 37.6528 34.4908 36.886 32.906 36.5024 30.9892 36.5024 28.7388 36.5024 26.5416 36.9496 24.6116 37.8444 22.9488 38.7388 21.2892 39.9532 19.9084 41.4872 18.808 43.0208 17.71 44.7844 16.8908 46.7784 16.3548 48.7728 15.8176 50.868 15.5488 53.0668 15.5488 54.7024 15.5488 56.0444 15.588 57.0928 15.6644 58.14 15.7412 59.0224 15.8304 59.7384 15.9328L59.7384 14.4756zM83.0504 33.9532C84.0208 34.3116 85.0188 34.5672 86.0416 34.7204 87.064 34.8736 88.392 34.95 90.0296 34.95 91.87 34.95 93.556 34.6568 95.09 34.0688 96.624 33.482 97.94 32.5736 99.0392 31.346 100.1384 30.1196 101.0068 28.574 101.6464 26.7064 102.2852 24.8412 102.6056 22.6308 102.6056 20.0732 102.6056 15.9836 101.8504 12.7376 100.3432 10.334 98.834 7.9316 96.3668 6.73 92.9432 6.73 91.6652 6.73 90.4372 6.9596 89.2628 7.4204 88.0856 7.8796 87.0384 8.5704 86.118 9.4904 85.198 10.4108 84.4568 11.5748 83.8948 12.98 83.3312 14.3872 83.0504 16.0604 83.0504 18.0032L83.0504 33.9532zM75.4588 1.0544C75.9692.9536 76.494.8768 77.0308.8248 77.568.7748 78.1164.7484 78.6796.7484 79.1904.7484 79.7268.7748 80.2904.8248 80.852.8768 81.3888.9536 81.9008 1.0544 81.9508 1.1584 82.0156 1.4764 82.092 2.0136 82.1688 2.5508 82.2452 3.126 82.3224 3.7384 82.3992 4.3524 82.4756 4.9416 82.5524 5.5024 82.6288 6.0656 82.6672 6.4236 82.6672 6.5768 83.1772 5.7592 83.7912 4.966 84.5076 4.1992 85.2228 3.432 86.0804 2.742 87.0772 2.1292 88.074 1.5152 89.198 1.03 90.4512.6716 91.7028.3148 93.0964.1344 94.6304.1344 96.9304.1344 99.0652.5188 101.034 1.2856 103.0016 2.0528 104.6876 3.24 106.094 4.8508 107.4996 6.4616 108.5988 8.5068 109.3916 10.9856 110.1848 13.4668 110.5804 16.3928 110.5804 19.7668 110.5804 26.5152 108.752 31.7952 105.0972 35.6028 101.4416 39.412 96.266 41.3156 89.5688 41.3156 88.4436 41.3156 87.294 41.2392 86.118 41.086 84.9412 40.9316 83.9196 40.7268 83.0504 40.4724L83.0504 58.494C82.4376 58.5952 81.7852 58.6716 81.0956 58.7236 80.4052 58.774 79.7784 58.8 79.2164 58.8 78.6532 58.8 78.028 58.774 77.3376 58.7236 76.6472 58.6716 76.0212 58.5952 75.4588 58.494L75.4588 1.0544z" mask="url(#zapier-logo-b)"/>
    </g>
    <path fill="#FF4A00" d="M120.0132 39.8364L115.028 39.8364C114.9256 39.4276 114.8492 38.9548 114.7984 38.4176 114.7468 37.8816 114.722 37.3572 114.722 36.846 114.722 36.336 114.7468 35.8104 114.7984 35.2732 114.8492 34.7372 114.9256 34.2648 115.028 33.8544L127.4524 33.8544 127.4524 73.1956C126.8892 73.2968 126.2632 73.3736 125.5732 73.4256 124.8828 73.476 124.256 73.502 123.6936 73.502 123.1824 73.502 122.5816 73.476 121.8924 73.4256 121.202 73.3736 120.5752 73.2968 120.0132 73.1956L120.0132 39.8364M163.2644 49.7296C163.2644 48.298 163.0724 46.9304 162.6896 45.626 162.3052 44.3228 161.742 43.186 161.0024 42.2136 160.2596 41.2432 159.3148 40.4628 158.164 39.8752 157.014 39.2872 155.646 38.9928 154.0612 38.9928 150.9428 38.9928 148.5524 39.94 146.8912 41.8308 145.2296 43.722 144.2204 46.3552 143.862 49.7296L163.2644 49.7296zM143.7856 55.404C143.888 59.6984 145 62.8432 147.122 64.8364 149.2424 66.8296 152.3744 67.828 156.5156 67.828 160.1456 67.828 163.5964 67.188 166.8684 65.91 167.2772 66.6768 167.6092 67.61 167.8652 68.7092 168.1208 69.8096 168.274 70.8948 168.3256 71.968 166.6388 72.6856 164.784 73.2204 162.766 73.5788 160.7452 73.9356 158.5088 74.1156 156.0564 74.1156 152.4768 74.1156 149.4088 73.6172 146.8536 72.6208 144.2968 71.6228 142.188 70.2172 140.5264 68.4028 138.8652 66.5884 137.6508 64.4408 136.8836 61.9608 136.118 59.4816 135.7336 56.7588 135.7336 53.7936 135.7336 50.8796 136.1036 48.1568 136.8456 45.626 137.586 43.0964 138.7252 40.8976 140.258 39.0316 141.7916 37.1652 143.7208 35.6832 146.0476 34.584 148.3732 33.4848 151.1208 32.9344 154.2916 32.9344 157.0012 32.9344 159.3784 33.3952 161.424 34.3152 163.468 35.2356 165.1812 36.5008 166.562 38.1116 167.9416 39.722 168.9892 41.6388 169.7056 43.862 170.4208 46.0868 170.78 48.502 170.78 51.1096 170.78 51.826 170.7528 52.5796 170.702 53.3716 170.6516 54.1656 170.5996 54.842 170.5488 55.404L143.7856 55.404zM179.1416 33.8544C179.7036 33.7536 180.2408 33.6768 180.752 33.6248 181.262 33.5748 181.7996 33.5484 182.3624 33.5484 182.9248 33.5484 183.4868 33.5748 184.0496 33.6248 184.6116 33.6768 185.1232 33.7536 185.5836 33.8544 185.7372 34.6216 185.8904 35.6324 186.0432 36.8836 186.1964 38.1376 186.2744 39.1976 186.2744 40.0672 187.3476 38.3296 188.766 36.8204 190.5296 35.542 192.2932 34.2648 194.5556 33.6248 197.316 33.6248 197.7252 33.6248 198.1468 33.638 198.5816 33.6636 199.0148 33.6896 199.3876 33.728 199.6936 33.778 199.7948 34.2388 199.8728 34.7252 199.9236 35.2356 199.9744 35.7468 200 36.284 200 36.846 200 37.46 199.962 38.0996 199.8856 38.7628 199.8088 39.4276 199.7184 40.0672 199.6172 40.6796 199.2072 40.5788 198.7852 40.5268 198.3516 40.5268 197.9168 40.5268 197.572 40.5268 197.316 40.5268 195.9364 40.5268 194.6192 40.7188 193.3668 41.1016 192.1132 41.4856 190.9892 42.1632 189.9924 43.134 188.9956 44.106 188.2028 45.4352 187.616 47.1224 187.0268 48.8096 186.7336 50.982 186.7336 53.6404L186.7336 73.1956C186.1704 73.2968 185.5448 73.3736 184.8544 73.4256 184.1652 73.476 183.5384 73.502 182.9764 73.502 182.4132 73.502 181.7876 73.476 181.0972 73.4256 180.4068 73.3736 179.7556 73.2968 179.1416 73.1956L179.1416 33.8544M125.3196 12.8476C125.3192 13.7936 125.146 14.6988 124.8308 15.5352 123.9948 15.8504 123.0888 16.0236 122.1424 16.0248L122.1316 16.0248C121.186 16.0236 120.28 15.8508 119.444 15.5356 119.1288 14.6996 118.9552 13.7936 118.9548 12.8476L118.9548 12.8364C118.9552 11.8908 119.1284 10.9848 119.4432 10.1492 120.2792 9.8336 121.1856 9.66 122.1316 9.6596L122.1424 9.6596C123.0888 9.66 123.9948 9.8336 124.8308 10.1492 125.146 10.9848 125.3192 11.8908 125.3196 12.8364L125.3196 12.8476zM134.6904 10.7204L127.2596 10.7204 132.5136 5.466C132.1008 4.886 131.6404 4.342 131.1384 3.84L131.1384 3.8396C130.6364 3.338 130.0924 2.8784 129.5128 2.4656L124.2584 7.72 124.2584.2892C123.5708.1736 122.8644.1124 122.1436.112L122.1304.112C121.4096.1124 120.7036.1736 120.0156.2892L120.0156 7.72 114.7612 2.4656C114.1812 2.8784 113.6376 3.3384 113.1364 3.8404L113.1336 3.8424C112.6324 4.3436 112.1732 4.8868 111.7604 5.466L117.0152 10.7204 109.5844 10.7204C109.5844 10.7204 109.4072 12.116 109.4072 12.8376L109.4072 12.8464C109.4072 13.568 109.4684 14.2752 109.5844 14.9636L117.0152 14.9636 111.7604 20.218C112.5868 21.3776 113.6016 22.3928 114.7612 23.2188L120.0156 17.964 120.0156 25.3952C120.7032 25.5104 121.4084 25.5712 122.128 25.572L122.146 25.572C122.866 25.5712 123.572 25.5104 124.2584 25.3952L124.2584 17.964 129.5132 23.2188C130.0928 22.806 130.6364 22.346 131.1384 21.8444L131.1396 21.8432C131.6408 21.3412 132.1012 20.7972 132.5136 20.218L127.2588 14.9636 134.6904 14.9636C134.806 14.2764 134.8664 13.5712 134.8672 12.8512L134.8672 12.8328C134.8664 12.1128 134.806 11.4076 134.6904 10.7204z"/>
  </g>
</svg>
